<?xml version="1.0" encoding="UTF-8"?> <!-- Generator: Adobe Illustrator 23.0.2, SVG Export Plug-In . SVG Version: 6.00 Build 0) --> <svg xmlns="http://www.w3.org/2000/svg" xmlns:xlink="http://www.w3.org/1999/xlink" id="Capa_1" x="0px" y="0px" viewBox="0 0 512 512" style="enable-background:new 0 0 512 512;" xml:space="preserve"> <style type="text/css"> .st0{fill:#16838D;} </style> <g> <g> <g> <g> <path class="st0" d="M350.7,204.6c-13.6,0-27.3-4.2-39-12.8c-14.2-10.4-23.4-25.8-26.1-43.2c-2.6-17.4,1.7-34.8,12.1-49 C318.1,72,429.3,19.4,434,17.2c1.9-0.9,4.2-0.7,5.9,0.6c1.7,1.2,2.6,3.3,2.3,5.4c-0.7,5.2-18,127-38.3,154.6l0,0 C390.9,195.3,371,204.6,350.7,204.6z M429.2,32.3C392.7,50,321.1,87.4,307,106.4c-8.6,11.7-12.2,26-10,40.4 c2.2,14.4,9.8,27,21.5,35.6c24.1,17.8,58.3,12.6,76.1-11.5C408.6,151.9,423.1,72.4,429.2,32.3z"></path> </g> <g> <path class="st0" d="M199.9,202.4c-15.5,0-31-5.9-42.8-17.7C134.9,162.5,102.5,55,101.1,50.4c-0.6-2-0.1-4.2,1.4-5.7 c1.5-1.5,3.7-2,5.7-1.4c4.6,1.4,112.2,33.5,134.4,55.7c11.5,11.4,17.8,26.6,17.8,42.8c0,16.2-6.3,31.4-17.7,42.9 C231,196.4,215.4,202.4,199.9,202.4z M115.3,57.4c11.2,35.6,34.8,104.1,49.9,119.1c9.3,9.3,21.6,14.4,34.7,14.4c0,0,0,0,0,0 c13.1,0,25.4-5.1,34.7-14.4c9.3-9.3,14.4-21.6,14.3-34.7c0-13.1-5.1-25.4-14.4-34.7l0,0C219.5,92,150.9,68.5,115.3,57.4z"></path> </g> <g> <path class="st0" d="M284.7,237.6c-1.5,0-3-0.6-4.1-1.8L106.3,56c-2.2-2.3-2.1-5.9,0.1-8.1c2.3-2.2,5.9-2.1,8.1,0.1L284,222.9 L431.8,19c1.9-2.6,5.5-3.1,8-1.3c2.6,1.9,3.1,5.5,1.3,8L289.3,235.2c-1,1.4-2.6,2.2-4.3,2.4 C284.9,237.6,284.8,237.6,284.7,237.6z"></path> </g> </g> <g> <path class="st0" d="M284.7,303.2c-3.2,0-5.7-2.6-5.7-5.7v-65.6c0-3.2,2.6-5.7,5.7-5.7c3.2,0,5.7,2.6,5.7,5.7v65.6 C290.4,300.6,287.9,303.2,284.7,303.2z"></path> </g> </g> <g> <path class="st0" d="M168.9,351c-1.3,0-2.7-0.5-3.8-1.4c-2.4-2.1-2.7-5.7-0.6-8.1c26.9-31.2,71.8-49.8,120-49.8 c46.8,0,90.8,17.8,117.9,47.5c2.1,2.3,2,6-0.4,8.1c-2.3,2.1-6,2-8.1-0.4c-25-27.4-65.9-43.8-109.4-43.8 c-44.9,0-86.5,17.1-111.3,45.9C172.2,350.4,170.6,351,168.9,351z"></path> </g> <g> <g> <path class="st0" d="M125.5,492.6c-1.5,0-2.9-0.6-4.1-1.7l-72.6-72.6c-2.2-2.2-2.2-5.9,0-8.1l18-18c3.9-5.7,35.9-51.3,82.9-52.4 c30.2-0.8,49.8,6.6,64,12c7.9,3,14.1,5.3,19.5,5.3h57.4c14.9,0,27.2,11,29.3,25.3l34-6.8c4.3-4.5,18.6-19.2,40.9-36.6 c12.2-9.5,24.3-13.2,35.9-10.8c18.1,3.8,27.7,21,28.1,21.7c1.2,2.2,0.8,5-1,6.8l-74.4,73.6c-0.5,0.5-1.1,0.9-1.7,1.2l-82.2,37.2 c-0.7,0.3-1.6,0.5-2.4,0.5H162.8c-10.8,0-14.7,3.7-14.8,3.8L129.5,491C128.4,492,127,492.6,125.5,492.6z M61.1,414.2l64.5,64.5 l14.3-13.8c0.3-0.4,6.7-7.2,23-7.2h133l80.1-36.2l70.3-69.5c-3.2-4.2-9.4-10.7-18-12.5c-8.1-1.7-17,1.2-26.5,8.6 c-25.5,19.9-40.6,36.5-40.7,36.7c-0.8,0.9-1.9,1.5-3.1,1.8l-38.7,7.8c-3.4,12.6-14.9,21.9-28.6,21.9h-79.6 c-3.2,0-5.7-2.6-5.7-5.7s2.6-5.7,5.7-5.7h79.6c10,0,18.1-8.1,18.1-18.1s-8.1-18.1-18.1-18.1h-57.4c-7.5,0-14.9-2.8-23.5-6.1 c-14.1-5.3-31.6-12-59.7-11.3c-43,1-73.5,47.2-73.9,47.7c-0.2,0.3-0.5,0.7-0.8,0.9L61.1,414.2z"></path> </g> </g> </g> </svg> 